<?xml version="1.0" standalone="no"?>
<!DOCTYPE svg PUBLIC "-//W3C//DTD SVG 20010904//EN"
 "http://www.w3.org/TR/2001/REC-SVG-20010904/DTD/svg10.dtd">
<svg version="1.0" xmlns="http://www.w3.org/2000/svg"
 width="500.000000pt" height="500.000000pt" viewBox="0 0 500.000000 500.000000"
 preserveAspectRatio="xMidYMid meet">

<g transform="translate(0.000000,500.000000) scale(0.100000,-0.100000)"
fill="#000000" stroke="none">
<path d="M2532 3243 l3 -208 2 203 3 202 30 0 30 0 2 -202 c1 -125 3 -160 5
-90 l4 112 99 0 99 0 4 -112 3 -113 2 113 2 112 100 0 99 0 4 -112 c2 -70 4
-36 5 89 l2 202 38 4 c20 2 -92 4 -250 5 l-288 2 2 -207z m488 112 l0 -85
-205 0 -205 0 0 85 0 85 205 0 205 0 0 -85z"/>
<path d="M2100 3322 c0 -9 -10 -22 -22 -27 -12 -6 -24 -16 -26 -24 -3 -8 0
-11 7 -7 6 4 11 1 11 -8 0 -8 -5 -16 -11 -18 -9 -3 -8 -10 1 -28 10 -19 10
-25 -2 -34 -10 -7 -12 -19 -7 -36 6 -21 7 -21 8 -5 1 11 10 28 21 38 11 9 23
31 26 47 4 16 10 27 15 25 4 -3 6 7 5 22 -2 16 -4 38 -5 51 -1 26 -21 30 -21
4z"/>
<path d="M2120 3129 c0 -5 5 -7 10 -4 6 3 10 8 10 11 0 2 -4 4 -10 4 -5 0 -10
-5 -10 -11z"/>
<path d="M2517 2992 c9 -6 13 -63 16 -207 l2 -200 3 203 2 202 30 0 30 0 2
-202 c1 -112 4 -161 5 -110 l4 92 136 0 136 0 -7 -49 c-4 -32 -3 -52 4 -56 6
-4 9 -13 6 -21 -3 -8 -1 -14 5 -14 6 0 7 14 3 35 -8 46 6 45 39 -2 15 -21 27
-31 27 -24 0 8 -6 22 -14 30 -8 9 -17 35 -21 59 l-7 42 51 0 50 0 4 -92 c1
-51 4 -2 5 109 l2 202 48 4 c26 2 -92 4 -263 5 -170 1 -304 -2 -298 -6z m293
-107 l0 -105 -100 0 -100 0 0 105 0 105 100 0 100 0 0 -105z m210 0 l0 -105
-31 0 c-29 0 -30 2 -18 18 13 15 12 16 -3 4 -21 -17 -62 -6 -54 14 6 17 -10
28 -19 13 -5 -7 -20 1 -41 22 -30 29 -34 39 -34 86 l0 53 100 0 100 0 0 -105z
m-145 -82 c6 -20 3 -23 -24 -23 -30 0 -31 1 -31 47 l0 48 24 -25 c13 -14 27
-35 31 -47z"/>
<path d="M2932 2849 c2 -7 10 -15 17 -17 8 -3 12 1 9 9 -2 7 -10 15 -17 17 -8
3 -12 -1 -9 -9z"/>
<path d="M2537 2169 c-4 -13 -7 -52 -7 -87 0 -58 -3 -65 -30 -89 -44 -36 -55
-62 -38 -80 8 -8 24 -15 36 -16 28 -2 28 -3 -5 -41 -31 -37 -62 -103 -63 -132
0 -27 28 -52 72 -64 32 -9 35 -14 46 -70 7 -33 17 -60 21 -60 5 0 6 29 4 63
l-5 64 35 22 c56 34 64 81 8 48 -16 -9 -31 -17 -34 -17 -2 0 -7 35 -10 77 -5
64 -3 83 12 108 18 29 16 68 -4 65 -6 0 -11 5 -13 12 -3 14 49 50 85 58 14 3
20 9 15 17 -5 8 -19 9 -47 3 -21 -5 -43 -7 -47 -4 -4 3 -8 29 -9 57 0 29 -4
61 -8 71 -7 18 -8 18 -14 -5z m-7 -229 c0 -5 -5 -10 -11 -10 -5 0 -7 5 -4 10
3 6 8 10 11 10 2 0 4 -4 4 -10z m9 -207 c1 -36 -2 -43 -18 -43 -58 0 -65 30
-24 99 l27 46 7 -30 c4 -16 7 -49 8 -72z"/>
<path d="M2257 2132 c-2 -4 -5 -130 -6 -280 -2 -199 1 -277 9 -287 23 -28 30
-3 30 101 l0 104 46 -35 c48 -37 59 -41 68 -26 4 5 -16 26 -44 46 -27 20 -50
40 -50 43 0 4 23 26 50 50 28 24 50 50 50 58 0 25 -35 15 -70 -21 -19 -19 -38
-35 -43 -35 -5 0 -8 55 -7 128 2 70 2 132 1 138 -1 14 -29 26 -34 16z"/>
<path d="M3367 2112 c-11 -55 -49 -144 -58 -135 -5 5 -9 29 -10 53 -1 70 -9
100 -26 100 -24 0 -14 -162 12 -190 22 -25 34 -25 52 -2 13 15 14 11 9 -33
-12 -96 -19 -293 -12 -319 3 -14 12 -26 19 -26 9 0 12 35 13 133 1 76 11 193
23 276 12 79 20 150 17 158 -9 23 -33 14 -39 -15z"/>
<path d="M1656 2117 l-29 -13 2 -144 c1 -142 7 -255 16 -315 5 -27 1 -32 -27
-44 -36 -14 -35 -14 40 -39 29 -9 32 -8 32 10 0 11 13 37 30 58 16 20 34 49
40 64 21 57 6 132 -34 166 -15 11 -14 15 8 37 53 52 72 174 36 218 -15 18 -74
19 -114 2z m99 -51 c8 -39 -19 -110 -54 -145 -43 -43 -50 -20 -29 98 13 70 20
81 55 81 17 0 23 -7 28 -34z m-55 -226 c42 -22 44 -86 4 -161 l-18 -34 -7 45
c-9 55 -11 160 -3 160 3 0 14 -4 24 -10z"/>
<path d="M2720 2106 c-5 -13 -13 -126 -19 -251 -14 -295 -15 -275 9 -275 18 0
20 7 20 66 0 59 3 70 29 99 56 65 94 216 77 309 -8 42 -39 64 -62 45 -11 -9
-14 -8 -14 4 0 26 -30 29 -40 3z m88 -79 c5 -41 -15 -126 -43 -182 l-25 -50 3
112 c2 93 5 115 21 132 24 27 40 22 44 -12z"/>
<path d="M2871 1865 c3 -190 7 -267 16 -276 15 -15 115 16 140 43 15 17 15 18
-4 18 -11 0 -40 -7 -63 -15 -23 -8 -44 -15 -45 -15 -9 0 -14 264 -7 360 9 118
4 150 -24 150 -14 0 -16 -29 -13 -265z"/>
<path d="M3145 2053 c-9 -106 -30 -213 -60 -308 -30 -96 -30 -105 -7 -105 13
0 22 12 31 40 9 32 17 40 35 40 20 0 24 -8 35 -57 19 -86 21 -93 37 -93 17 0
17 -4 -2 100 -8 47 -18 164 -23 261 -4 97 -11 181 -15 188 -16 25 -24 7 -31
-66z m15 -263 c0 -28 -4 -40 -14 -40 -11 0 -12 8 -4 40 6 22 12 40 14 40 2 0
4 -18 4 -40z"/>
<path d="M1875 2098 c-35 -50 -59 -159 -59 -268 0 -118 13 -175 50 -220 45
-53 101 -32 124 47 21 71 24 196 7 275 -9 40 -18 90 -21 112 -9 70 -67 101
-101 54z m75 -37 c15 -30 12 -33 -10 -11 -22 22 -25 30 -10 30 5 0 14 -9 20
-19z m-8 -71 c9 -19 22 -65 29 -102 27 -147 -38 -329 -89 -248 -24 39 -35 163
-23 250 22 145 46 175 83 100z"/>
<path d="M2095 2098 c-35 -50 -59 -159 -59 -268 0 -118 13 -175 50 -220 45
-53 101 -32 124 47 21 71 24 196 7 275 -9 40 -18 90 -21 112 -9 70 -67 101
-101 54z m75 -37 c15 -30 12 -33 -10 -11 -22 22 -25 30 -10 30 5 0 14 -9 20
-19z m-8 -71 c9 -19 22 -65 29 -102 27 -147 -38 -329 -89 -248 -24 39 -35 163
-23 250 22 145 46 175 83 100z"/>
</g>
</svg>
